<svg xmlns="http://www.w3.org/2000/svg" width="56" height="90" viewBox="0 0 56 90" fill="none"><path d="M45.7281 86.9506C42.9519 86.9506 40.973 84.7066 40.973 81.9767V81.9338C40.973 79.2039 42.9092 76.9814 45.6854 76.9814C48.4615 76.9814 50.4404 79.2468 50.4404 81.9696V82.0124C50.4404 84.7424 48.5042 86.9435 45.7281 86.9435M45.6925 89.2375C49.9848 89.2375 53.0244 85.9287 53.0244 81.9839V81.941C53.0244 77.989 50.0275 74.7231 45.7352 74.7231C41.4428 74.7231 38.4104 78.0319 38.4104 81.9767V82.0196C38.4104 85.9716 41.4072 89.2375 45.6996 89.2375M29.5338 89.0946H31.7121L37.5064 74.9661H34.8512L30.6585 85.75L26.4445 74.9661H23.7253L29.5338 89.0946ZM18.7353 88.9945H21.1911V74.9589H18.7353V88.9945ZM13.0478 74.9661L9.55265 80.0543L6.0789 74.9661H3.18174L8.03645 81.8624L2.98242 89.0017H5.79417L9.46723 83.649L13.1617 89.0017H16.0588L10.9906 81.8266L15.8595 74.9732H13.0478V74.9661Z" fill="#1D1D1B"></path><path d="M46.6679 37.483C44.5395 37.483 42.589 38.2048 41.023 39.4054L37.3357 35.7036V20.4817L41.0017 16.8013C42.5748 18.009 44.5323 18.7379 46.6679 18.7379C51.8215 18.7379 56 14.543 56 9.36897C56 4.19495 51.8215 0 46.6679 0C41.5142 0 37.3357 4.19495 37.3357 9.36897C37.3357 11.5129 38.0618 13.4782 39.2648 15.0575L35.6131 18.7236H20.4154L16.7495 15.0432C17.9453 13.471 18.6643 11.5058 18.6643 9.37612C18.6643 4.19495 14.4858 0 9.33215 0C4.17847 0 0 4.19495 0 9.36897C0 14.543 4.17847 18.7379 9.33215 18.7379C11.4605 18.7379 13.411 18.0162 14.977 16.8156L18.6643 20.5174V35.7393L14.9983 39.4197C13.4252 38.212 11.4676 37.483 9.33215 37.483C4.17847 37.483 0 41.678 0 46.852C0 52.026 4.17847 56.221 9.33215 56.221C14.4858 56.221 18.6643 52.026 18.6643 46.852C18.6643 44.7081 17.9382 42.7428 16.7352 41.1634L20.4154 37.4687H35.5419L39.2434 41.1849C38.0475 42.7571 37.3286 44.7224 37.3286 46.852C37.3286 52.026 41.5071 56.221 46.6607 56.221C51.8144 56.221 55.9929 52.026 55.9929 46.852C55.9929 41.678 51.8144 37.483 46.6607 37.483" fill="#FF5722"></path></svg>